<svg height="512" viewBox="0 0 512 512" width="512" xmlns="http://www.w3.org/2000/svg"><g id="Flat"><path d="m369.462 223.193a196.594 196.594 0 0 1 -9.462-59.274v-3.919a104 104 0 0 0 -104-104 104 104 0 0 0 -104 104v5.136a188.384 188.384 0 0 1 -9.288 57.507c-8.354 26.053-8.316 50.873-2.949 75.014a69.775 69.775 0 0 0 68.237 54.343h96a69.775 69.775 0 0 0 68.237-54.341c5.329-23.972 5.404-48.613-2.775-74.466z" fill="#f99e0c"/><path d="m384 400v96h-256v-96a48 48 0 0 1 48-48h36a12.008 12.008 0 0 0 12-12v-68h64v68a12.008 12.008 0 0 0 12 12h36a47.957 47.957 0 0 1 48 48z" fill="#fdc8a2"/><path d="m288 280v41.33a80.1 80.1 0 0 1 -64 0v-41.33z" fill="#fdbf92"/><path d="m384 400v96h-256v-96a48 48 0 0 1 48-48h32a60 60 0 0 0 96 0h32a47.957 47.957 0 0 1 48 48z" fill="#ef9191"/><rect fill="#fdc8a2" height="208" rx="80" width="160" x="176" y="96"/><path d="m214 212a14 14 0 1 1 14-14 14.015 14.015 0 0 1 -14 14z" fill="#91563a"/><path d="m298 212a14 14 0 1 1 14-14 14.015 14.015 0 0 1 -14 14z" fill="#91563a"/><path d="m256 264a24.027 24.027 0 0 1 -24-24h16a8 8 0 0 0 16 0h16a24.027 24.027 0 0 1 -24 24z" fill="#fcb079"/><path d="m372.24 297.66a68.954 68.954 0 0 1 -24.54 39.11 70.176 70.176 0 0 1 -43.7 15.23c12.76-21.11 33.01-53.63 32-80-1.22-31.84-14.49-42.08-15.88-88q-.12-3.825-.12-8c0-32-15.79-68.56-31.15-71.37-13.02-2.39-23.84 7.33-32.85 15.37-9.01-8.04-19.83-17.76-32.85-15.37-15.36 2.81-31.15 39.37-31.15 71.37q0 4.17-.12 8c-1.39 45.92-14.66 56.16-15.88 88-.02.64-.04 1.28-.04 1.92 0 26.01 19.59 57.48 32.04 78.08a69.777 69.777 0 0 1 -68.24-54.34c-5.33-23.97-5.4-48.61 2.78-74.47a203.264 203.264 0 0 0 8.35-39.19q.87-7.965 1.06-16c.03-1.36.05-2.72.05-4.08v-3.92a104 104 0 0 1 208 0v3.92c0 1.36.02 2.72.05 4.08q.18 8.025 1.06 16a203.264 203.264 0 0 0 8.35 39.19c8.18 25.86 8.11 50.5 2.78 74.47z" fill="#ffb431"/><path d="m307.68 362.47 5.38 5.71-11.64 10.98-5.52-5.86a65.936 65.936 0 0 1 -6.89 4.35l6.39 12.77-14.32 7.16-6.96-13.93a67.854 67.854 0 0 1 -9.88 1.89v16.46h-16v-16.46a67.854 67.854 0 0 1 -9.88-1.89l-6.96 13.93-14.32-7.16 6.39-12.77a66.39 66.39 0 0 1 -6.74-4.25l-6.88 7.63-11.88-10.72 6.95-7.7q-1.545-1.77-2.97-3.66l-5.64-6.87.1-.08h15.83a11.868 11.868 0 0 0 4.06-.71 51.985 51.985 0 0 0 79.88 0 11.868 11.868 0 0 0 4.06.71h15.1l-4.51 6.54c-.059.09-.13.18-.19.26q-1.425 1.905-2.96 3.67z" fill="#e27b7b"/><path d="m351.83 354.59c-5.02 19.27-14.08 34.58-26.9 45.5a97.289 97.289 0 0 1 -20.52 13.44l-7-14.39a81.55 81.55 0 0 0 17.14-11.23c9.971-8.49 17.17-20.56 21.41-35.91h.28a47.873 47.873 0 0 1 15.59 2.59z" fill="#e27b7b"/><path d="m256.24 424c-51.409 0-77.322-33.763-78.4-35.2l12.781-9.625c.898 1.177 22.479 28.825 65.619 28.825a99.158 99.158 0 0 0 29.613-4.285l4.775 15.271a115.133 115.133 0 0 1 -34.388 5.014z" fill="#e27b7b"/><path d="m184.24 416v24a8.066 8.066 0 0 1 -1.34 4.44l-6.83 10.24a46.469 46.469 0 0 0 -7.83 25.86v.83a46.677 46.677 0 0 0 1.7 12.49l.58 2.14h-16.55a62.946 62.946 0 0 1 -1.73-14.63v-.83a62.467 62.467 0 0 1 5.5-25.66c-6.84-12.18-12.1-32.29-13.26-36.94l15.52-3.88a213.827 213.827 0 0 0 7.69 24.34l.55-.82v-21.58z" fill="#e27b7b"/><path d="m352.58 450.55a62.356 62.356 0 0 1 7.66 29.99v.83a62.082 62.082 0 0 1 -1.74 14.63h-16.74l.85-2.4a46.687 46.687 0 0 0 1.63-12.23v-.83a46.469 46.469 0 0 0 -7.83-25.86l-6.83-10.24a8.066 8.066 0 0 1 -1.34-4.44v-24h16v15.53a175.759 175.759 0 0 0 8.24-25.47l15.52 3.88c-5.5 22-11.63 34.42-15.42 40.61z" fill="#e27b7b"/><rect fill="#91563a" height="64" rx="8" width="224" x="144" y="104"/><path d="m352 104h-192a80.008 80.008 0 0 1 69.17-79.27 80.624 80.624 0 0 1 10.83-.73h32a79.949 79.949 0 0 1 80 80z" fill="#865036"/><g fill="#804a32"><path d="m200 128h16v40h-16z"/><path d="m168 128h16v40h-16z"/><path d="m232 128h16v40h-16z"/><path d="m264 128h16v40h-16z"/><path d="m296 128h16v40h-16z"/><path d="m328 128h16v40h-16z"/></g><path d="m312 104h-16a108.583 108.583 0 0 0 -8.9-43.27 89.484 89.484 0 0 0 -11.97-20.02l-9.1-11.37-2.03-2.03v76.69h-16v-76.69l-2.03 2.03-9.1 11.37a89.484 89.484 0 0 0 -11.97 20.02 108.583 108.583 0 0 0 -8.9 43.27h-16a126.388 126.388 0 0 1 4.72-34.5 109.885 109.885 0 0 1 19.66-38.78l4.79-5.99a80.624 80.624 0 0 1 10.83-.73h32a80.624 80.624 0 0 1 10.83.73l4.79 5.99a109.885 109.885 0 0 1 19.66 38.78 126.388 126.388 0 0 1 4.72 34.5z" fill="#78462f"/><path d="m192 168h128v16h-128z" fill="#fdbf92"/><path d="m192 168v16h-41.11q.87-7.965 1.06-16z" fill="#f9a40f"/><path d="m361.11 184h-41.11v-16h40.05q.18 8.025 1.06 16z" fill="#f9a40f"/></g></svg>